<svg width="484" height="100" viewBox="0 0 484 100" fill="none" xmlns="http://www.w3.org/2000/svg">
<path d="M73.3408 84.36C77.8362 65.8117 81.8823 47.6902 82.0281 29.9502C82.1693 12.3691 78.2826 6.74518 75.3486 4.04128C74.7449 3.48402 74.0928 2.9935 73.4108 2.57719C71.0307 1.12439 68.1976 0.508417 64.7477 0.694757C56.9998 1.1123 45.6412 6.18309 31.8984 15.3616C17.6036 24.908 5.51969 35.6037 2.15789 38.6562C2.06192 38.744 1.90751 38.877 1.71618 39.0453C1.13767 39.5513 0.634568 40.0031 0.224497 40.3846C0.102968 40.4953 0.0930879 40.6819 0.200871 40.8209C0.231598 40.8589 0.265752 40.8913 0.307853 40.917C0.4117 40.9804 0.539062 40.9927 0.651113 40.9416C1.46039 40.5688 2.30969 40.1241 3.13235 39.6979C4.06487 39.2115 5.02342 38.7141 5.88803 38.3327C12.956 35.2233 22.2362 31.4495 31.3134 29.8325C41.3946 28.0347 48.3428 28.7316 53.8495 32.0929C58.5675 34.9728 61.8067 38.1674 64.3513 42.4559C67.1014 47.0893 69.0873 53.1324 70.5966 61.4774C71.9652 69.043 72.3163 76.7734 72.6564 84.2505C72.6611 84.369 72.733 84.4783 72.8369 84.5417C72.879 84.5674 72.9262 84.5847 72.9758 84.5919C73.1504 84.6214 73.3097 84.5183 73.3498 84.3578L73.3408 84.36Z" fill="#18191B"/>
<path d="M60.802 74.2793C60.6665 66.2336 60.3447 47.3914 49.9319 41.0354C49.713 40.9018 49.485 40.7704 49.2575 40.6508C44.2582 37.9729 37.5043 37.9107 29.1768 40.4708C22.5614 42.5042 16.8526 45.6149 14.4158 46.9436C13.9764 47.1839 13.6548 47.3574 13.4668 47.4507C13.3191 47.5223 13.2574 47.6927 13.3194 47.85C13.3498 47.9263 13.4063 47.9916 13.4737 48.0328C13.541 48.0739 13.6305 48.0977 13.7186 48.0859C13.8185 48.0737 13.9223 48.0677 14.0306 48.0607C14.2191 48.0486 14.4103 48.0382 14.6047 47.9912C30.2848 44.2599 38.2316 47.2654 43.4013 50.3015C43.4715 50.3444 43.5417 50.3872 43.6118 50.43C52.0066 55.5542 57.8415 70.4073 59.7572 75.2904C59.9348 75.7379 60.0731 76.0919 60.1722 76.3335C60.2044 76.4071 60.258 76.4706 60.3226 76.51C60.3956 76.5546 60.4822 76.5767 60.5675 76.5632C60.7318 76.5402 60.8479 76.4069 60.844 76.2428C60.8255 75.7114 60.8136 75.0492 60.8003 74.2821L60.802 74.2793Z" fill="#18191B"/>
<g clip-path="url(#clip0_2459_1129)">
<path d="M162.481 65.88L166.036 0.183182H161.977L112.445 67.3474C108.992 72.1835 105.744 72.7299 101.483 72.7299L100.871 74.6452H121.782L122.489 72.7299C112.239 72.7299 113.352 71.9976 116.701 67.3474L128.68 50.9239H157.099L156.082 65.8884C155.781 71.4568 154.558 72.7299 146.033 72.7299L145.32 74.6452H169.881L170.793 72.7299C163.284 72.7299 162.163 71.6371 162.473 65.8884L162.479 65.8828L162.481 65.88ZM157.203 48.0933H130.815L159.028 9.39904H159.741L157.2 48.0876V48.0933H157.203Z" fill="#18191B" stroke="#18191B" stroke-width="0.366156" stroke-miterlimit="10"/>
<path d="M261.654 15.2939C259.724 15.2939 258.547 16.9388 258.305 18.4823C257.818 21.5636 260.003 24.4168 259.091 30.1289C257.463 40.3474 246.349 57.2723 231.204 74.6365C235.795 56.6104 241.589 38.6997 243.062 29.467C244.554 19.4681 242.6 15.5812 238.234 15.5812C232.851 15.5812 225.799 38.1223 221.188 47.3495C221.188 47.3495 210.693 71.1186 207.049 71.1186C205.421 71.1186 205.018 70.0202 205.018 68.3725C205.018 66.9444 205.931 64.5278 206.438 62.8801C211.82 48.6986 220.346 31.2273 220.346 22.2171C220.346 18.0429 218.315 15.401 214.558 15.401C207.857 15.401 199.942 24.0817 188.78 49.5802H187.969L194.67 29.5796C195.884 25.842 196.901 22.879 196.901 20.5694C196.901 17.9331 195.582 15.6235 192.94 15.6235C186.55 15.6235 179.643 24.7436 175.483 33.4243H177.613C181.066 26.8335 186.243 19.6878 189.687 19.6878C190.6 19.6878 191.211 20.1244 191.211 21.7777C191.211 23.0959 190.093 26.7236 189.18 29.5796L174.866 74.6394H180.655C195.571 33.6496 206.843 20.4595 211.614 20.4595C213.338 20.4595 214.051 21.7777 214.051 24.5239C214.051 30.4584 206.739 46.9411 201.055 62.7675C200.142 65.1869 199.23 67.6035 199.23 69.5836C199.23 72.8818 200.652 75.3013 204.612 75.3013C211.51 75.3013 224.923 43.8344 224.923 43.8344C229.128 34.6692 234.381 20.637 236.496 20.3497C243.067 19.4428 231.846 50.1886 227.184 67.3529C225.083 75.1013 221.656 82.4526 216.898 88.9166C214.808 91.7586 212.958 93.6569 210.924 93.6569C207.877 93.6569 207.215 91.4572 203.967 91.4572C201.227 91.4572 198.644 93.6569 198.207 96.4031C197.912 98.2677 199.089 99.8112 202.128 99.8112C214.003 99.8112 226.171 86.5113 239.839 69.4766C253.117 52.9939 262.285 37.4942 264.158 25.7322C265.31 18.4795 264.299 15.2883 261.657 15.2883L261.654 15.2939Z" fill="#18191B" stroke="#18191B" stroke-width="0.366156" stroke-miterlimit="10"/>
<path d="M297.219 16.8939V22.4961H286.127V62.179C286.127 64.3646 286.423 66.0687 287.028 67.3051C287.625 68.5388 289.124 69.2204 291.515 69.3641C293.419 69.3641 295.315 69.2598 297.219 69.0486V74.6508C296.236 74.6508 295.244 74.6818 294.261 74.7522C293.278 74.8226 292.287 74.8564 291.304 74.8564C286.868 74.8564 283.767 73.9945 282.012 72.2708C280.249 70.547 279.409 67.3587 279.48 62.7085V22.4961H269.977V16.8939H279.48V0.521118H286.135V16.8939H297.227H297.222H297.219Z" fill="#18191B" stroke="#18191B" stroke-width="0.366156" stroke-miterlimit="10"/>
<path d="M309.152 0.521118V26.29H309.363C310.631 22.9777 312.881 20.3217 316.12 18.3163C319.362 16.3109 322.917 15.3054 326.787 15.3054C330.657 15.3054 333.775 15.8011 336.349 16.7841C338.921 17.7671 340.98 19.1641 342.529 20.9583C344.078 22.7524 345.171 24.9578 345.802 27.5631C346.438 30.1685 346.754 33.0949 346.754 36.3283V74.6395H340.098V37.3817C340.098 35.0609 339.887 32.8921 339.462 30.8867C339.036 28.8813 338.298 27.1378 337.242 25.6591C336.189 24.1804 334.761 23.0172 332.966 22.1722C331.172 21.33 328.936 20.9047 326.26 20.9047C323.584 20.9047 321.207 21.3807 319.129 22.3327C317.053 23.2847 315.29 24.5888 313.85 26.2422C312.403 27.8955 311.279 29.8699 310.468 32.157C309.656 34.4469 309.214 36.9283 309.149 39.604V74.6423H302.494V0.521118H309.149H309.152Z" fill="#18191B" stroke="#18191B" stroke-width="0.366156" stroke-miterlimit="10"/>
<path d="M361.851 16.8939V74.6451H355.195V16.8939H361.851ZM362.197 6.17394C362.197 4.14882 360.552 2.50111 358.527 2.50111C356.502 2.50111 354.854 4.14882 354.854 6.17394C354.854 8.19906 356.499 9.84676 358.527 9.84676C360.555 9.84676 362.197 8.19906 362.197 6.17394Z" fill="#18191B" stroke="#18191B" stroke-width="0.366156" stroke-miterlimit="10"/>
<path d="M376.953 16.894V26.2957H377.164C378.431 22.9834 380.682 20.3274 383.921 18.322C387.163 16.3166 390.717 15.311 394.587 15.311C398.457 15.311 401.578 15.8068 404.15 16.7897C406.721 17.7727 408.777 19.1698 410.329 20.9639C411.878 22.7581 412.971 24.9635 413.602 27.5688C414.239 30.1741 414.551 33.1006 414.551 36.334V74.6452H407.899V37.3874C407.899 35.0666 407.684 32.8978 407.262 30.8924C406.837 28.887 406.099 27.1435 405.042 25.6648C403.989 24.1861 402.561 23.0228 400.767 22.1807C398.973 21.3385 396.736 20.9132 394.061 20.9132C391.385 20.9132 389.008 21.3892 386.929 22.3412C384.853 23.2932 383.093 24.5973 381.651 26.2506C380.203 27.904 379.079 29.8784 378.268 32.1683C377.457 34.4582 377.015 36.9396 376.95 39.6153V74.6536H370.294V16.894H376.95H376.953Z" fill="#18191B" stroke="#18191B" stroke-width="0.366156" stroke-miterlimit="10"/>
<path d="M467.621 79.0193C466.739 82.2893 465.351 85.058 463.447 87.3282C461.543 89.5984 459.061 91.3418 456.003 92.5501C452.941 93.7556 449.192 94.3612 444.756 94.3612C442.01 94.3612 439.337 94.0429 436.732 93.4007C434.126 92.7586 431.788 91.7671 429.71 90.418C427.634 89.0688 425.91 87.3423 424.536 85.2496C423.158 83.154 422.367 80.6501 422.156 77.7377H428.811C429.163 79.7938 429.845 81.5176 430.867 82.9062C431.89 84.2947 433.118 85.4101 434.566 86.2579C436.005 87.1085 437.613 87.731 439.368 88.1197C441.128 88.5083 442.922 88.7027 444.756 88.7027C450.947 88.7027 455.422 86.9254 458.169 83.3765C460.915 79.822 462.289 77.3659 462.289 70.6935V63.2351H462.078C460.529 66.646 458.259 69.3781 455.268 71.4398C452.273 73.5016 448.775 74.5268 444.762 74.5268C440.396 74.5268 436.667 73.8001 433.569 72.3412C430.47 70.8878 427.916 68.8768 425.91 66.3221C423.905 63.7675 422.446 60.7622 421.525 57.3203C420.612 53.8756 420.15 47.5439 420.15 43.6373C420.15 39.7307 420.697 36.3086 421.79 32.9287C422.882 29.5572 424.463 26.6055 426.541 24.0874C428.617 21.5638 431.189 19.5809 434.25 18.1219C437.309 16.6686 440.816 15.9362 444.756 15.9362C446.795 15.9362 448.716 16.2207 450.51 16.7869C452.304 17.3586 453.944 18.1557 455.422 19.1866C456.901 20.2175 458.219 21.4061 459.383 22.7552C460.549 24.1043 461.441 25.5239 462.078 27.0167H462.289V15.9391H468.945V70.6906C468.945 74.7381 468.503 75.7408 467.627 79.008L467.621 79.0221V79.0193ZM452.364 67.0291C454.541 65.7841 456.374 64.1562 457.853 62.1254C459.332 60.1031 460.439 57.7738 461.177 55.1459C461.917 52.518 462.284 47.1637 462.284 44.395C462.284 41.6263 461.968 38.9984 461.332 36.3001C460.695 33.6019 459.678 31.1514 458.273 28.9517C456.865 26.7519 455.051 24.9747 452.831 23.6255C450.615 22.2764 447.919 21.6032 444.75 21.6032C441.582 21.6032 438.872 22.2595 436.616 23.5748C434.36 24.8902 432.495 26.6111 431.017 28.7433C429.538 30.8754 428.462 33.3089 427.795 36.041C427.124 38.7787 426.792 41.5672 426.792 44.4006C426.792 47.2341 427.144 52.5237 427.845 55.1515C428.547 57.7794 429.639 60.1059 431.118 62.131C432.597 64.1533 434.461 65.7898 436.717 67.0347C438.968 68.2796 441.644 68.8965 444.742 68.8965C447.629 68.8965 450.164 68.274 452.35 67.0347L452.364 67.0291Z" fill="#18191B" stroke="#18191B" stroke-width="0.366156" stroke-miterlimit="10"/>
</g>
<defs>
<clipPath id="clip0_2459_1129">
<rect width="383.081" height="100" fill="white" transform="translate(100.62)"/>
</clipPath>
</defs>
</svg>
